<svg width="491" height="71" fill="none" xmlns="http://www.w3.org/2000/svg"><path d="M179.76 44.69c0 2.473-.397 5.087-1.19 7.84-.793 2.707-2.123 5.227-3.99 7.56-1.867 2.287-4.317 4.177-7.35 5.67-2.987 1.493-6.72 2.24-11.2 2.24h-17.08V22.15l4.48-.35c2.38-.14 4.527-.21 6.44-.21 1.027 0 2.077.023 3.15.07h3.64c4.34 0 7.98.723 10.92 2.17 2.94 1.4 5.297 3.22 7.07 5.46a20.967 20.967 0 0 1 3.92 7.49c.793 2.707 1.19 5.343 1.19 7.91Zm-9.24 0c0-1.82-.257-3.663-.77-5.53a14.86 14.86 0 0 0-2.52-5.18c-1.12-1.587-2.613-2.87-4.48-3.85-1.867-.98-4.153-1.47-6.86-1.47h-.49l-7.98.14v32.34h7.56c5.32 0 9.24-1.423 11.76-4.27 2.52-2.847 3.78-6.907 3.78-12.18ZM187.614 68V21.87h8.47V68h-8.47Zm47.404-12.81c0 2.287-.467 4.293-1.4 6.02a13.322 13.322 0 0 1-3.71 4.34c-1.493 1.12-3.197 1.96-5.11 2.52-1.867.607-3.733.91-5.6.91-1.307 0-2.543-.047-3.71-.14a27.767 27.767 0 0 1-3.36-.49 31.744 31.744 0 0 1-3.29-.91 38.1 38.1 0 0 1-3.43-1.4l1.19-8.33a62.079 62.079 0 0 0 3.57 1.96c1.073.513 2.077.933 3.01 1.26.933.28 1.843.49 2.73.63.933.093 1.937.14 3.01.14.98 0 1.89-.14 2.73-.42a7.353 7.353 0 0 0 2.24-1.19 6.54 6.54 0 0 0 1.54-1.89c.373-.747.56-1.54.56-2.38 0-.933-.28-1.75-.84-2.45a9.017 9.017 0 0 0-2.03-1.96 15.523 15.523 0 0 0-2.59-1.47 100.45 100.45 0 0 1-2.45-1.33 93.829 93.829 0 0 1-5.39-3.15c-1.54-1.027-2.847-2.077-3.92-3.15-1.027-1.12-1.82-2.287-2.38-3.5-.513-1.26-.77-2.683-.77-4.27 0-1.867.35-3.617 1.05-5.25a12.464 12.464 0 0 1 3.01-4.27c1.353-1.213 2.94-2.17 4.76-2.87 1.867-.7 3.967-1.05 6.3-1.05 1.54 0 2.893.047 4.06.14 1.167.093 2.263.257 3.29.49 1.027.187 2.03.467 3.01.84 1.027.327 2.147.723 3.36 1.19l-.63 8.47c-1.447-.84-2.73-1.517-3.85-2.03-1.12-.513-2.17-.91-3.15-1.19a14.879 14.879 0 0 0-2.8-.56 28.258 28.258 0 0 0-2.94-.14c-2.053 0-3.617.583-4.69 1.75-1.027 1.167-1.54 2.497-1.54 3.99 0 .98.28 1.843.84 2.59a9.68 9.68 0 0 0 2.1 2.03c.84.607 1.727 1.167 2.66 1.68.98.467 1.867.933 2.66 1.4a200.994 200.994 0 0 1 4.83 3.01c1.493.887 2.753 1.843 3.78 2.87 1.073.98 1.89 2.077 2.45 3.29.56 1.213.84 2.637.84 4.27Zm43.528 11.06c-2.286.98-4.573 1.657-6.86 2.03-2.24.373-4.76.56-7.56.56-2.986 0-5.95-.513-8.89-1.54a25.37 25.37 0 0 1-7.91-4.62c-2.333-2.007-4.223-4.48-5.67-7.42-1.446-2.94-2.17-6.323-2.17-10.15 0-3.313.63-6.417 1.89-9.31 1.26-2.94 2.987-5.483 5.18-7.63 2.24-2.193 4.854-3.92 7.84-5.18 3.034-1.26 6.324-1.89 9.87-1.89 1.82 0 3.36.047 4.62.14 1.26.093 2.404.257 3.43.49 1.074.187 2.077.443 3.01.77.98.28 2.054.653 3.22 1.12l-.63 8.19c-1.446-.747-2.753-1.33-3.92-1.75a21.16 21.16 0 0 0-3.36-1.05 19.378 19.378 0 0 0-3.29-.56 42.398 42.398 0 0 0-3.64-.14 14.8 14.8 0 0 0-5.67 1.12c-1.82.7-3.43 1.75-4.83 3.15-1.353 1.4-2.45 3.127-3.29 5.18-.793 2.007-1.19 4.317-1.19 6.93 0 2.473.42 4.737 1.26 6.79.84 2.053 1.984 3.827 3.43 5.32a15.792 15.792 0 0 0 5.04 3.5c1.914.84 3.967 1.26 6.16 1.26a58.9 58.9 0 0 0 2.94-.07 23.72 23.72 0 0 0 3.01-.49c1.027-.28 2.124-.63 3.29-1.05a63.754 63.754 0 0 0 4.06-1.82l.63 8.12ZM330.63 44.9c0 3.08-.584 6.067-1.75 8.96a24.234 24.234 0 0 1-4.76 7.7c-2.054 2.24-4.527 4.037-7.42 5.39-2.894 1.353-6.114 2.03-9.66 2.03-3.547 0-6.79-.653-9.73-1.96-2.94-1.307-5.46-3.057-7.56-5.25a24.597 24.597 0 0 1-4.9-7.7c-1.12-2.893-1.68-5.927-1.68-9.1a24.8 24.8 0 0 1 1.68-9.03c1.166-2.94 2.8-5.507 4.9-7.7 2.1-2.24 4.62-4.013 7.56-5.32 2.94-1.353 6.183-2.03 9.73-2.03 3.5 0 6.696.653 9.59 1.96 2.94 1.307 5.436 3.08 7.49 5.32 2.053 2.193 3.64 4.737 4.76 7.63a24.12 24.12 0 0 1 1.75 9.1Zm-9.31 0c0-2.287-.35-4.457-1.05-6.51-.7-2.053-1.68-3.827-2.94-5.32a14.192 14.192 0 0 0-4.55-3.57c-1.727-.887-3.64-1.33-5.74-1.33s-4.06.42-5.88 1.26a14.09 14.09 0 0 0-4.62 3.5c-1.307 1.493-2.334 3.267-3.08 5.32-.7 2.007-1.05 4.223-1.05 6.65 0 2.427.35 4.667 1.05 6.72.746 2.053 1.773 3.827 3.08 5.32a14.09 14.09 0 0 0 4.62 3.5c1.82.84 3.78 1.26 5.88 1.26s4.013-.42 5.74-1.26a14.192 14.192 0 0 0 4.55-3.57c1.26-1.54 2.24-3.313 2.94-5.32.7-2.053 1.05-4.27 1.05-6.65Zm34.803 24.22h-4.97l-18.41-47.25h8.96l12.11 32.34 11.27-32.34h8.54l-17.5 47.25ZM379.645 68V21.87h27.58v7.28h-19.11v11.83h16.52v7.21h-16.52v12.6h20.58V68h-29.05Zm61.941 0a342.97 342.97 0 0 1-3.29-4.76 235.197 235.197 0 0 1-2.87-4.34 191.41 191.41 0 0 1-2.8-4.48l-2.94-5.11h-3.43V68h-8.47V22.15c2.287-.187 4.574-.35 6.86-.49 2.287-.14 4.597-.21 6.93-.21 2.427 0 4.69.257 6.79.77 2.1.513 3.92 1.33 5.46 2.45a11.53 11.53 0 0 1 3.71 4.34c.934 1.727 1.4 3.827 1.4 6.3 0 1.54-.256 3.01-.77 4.41a12.476 12.476 0 0 1-2.03 3.71 13.2 13.2 0 0 1-3.08 2.94c-1.166.793-2.45 1.4-3.85 1.82a293.143 293.143 0 0 0 2.94 4.97c.98 1.54 1.984 3.103 3.01 4.69 1.074 1.54 2.194 3.15 3.36 4.83a286.972 286.972 0 0 0 4.06 5.32h-10.99Zm-1.82-32.9c0-2.007-.7-3.547-2.1-4.62-1.4-1.073-3.64-1.61-6.72-1.61h-.56l-4.13.07v13.3h4.27c1.82 0 3.314-.163 4.48-.49 1.214-.327 2.17-.793 2.87-1.4a4.835 4.835 0 0 0 1.47-2.24c.28-.887.42-1.89.42-3.01Zm35.576 13.72V68h-8.4V48.82l-14.91-26.95h8.68l10.71 19.46 10.36-19.46h8.26l-14.7 26.95Z" fill="#fff"/><path fill-rule="evenodd" clip-rule="evenodd" d="M0 68.154V22.167h8.557v45.987H0Z" fill="#fff"/><path fill-rule="evenodd" clip-rule="evenodd" d="M119.635 62.467c-.355-9.983-11.406-7.323-14.381-13.448-2.906-5.98 2.09-8.03 2.09-14.704 0-7.906-6.491-14.315-14.497-14.315-10.337 0-10.192 8.59-18.071 8.59h-.001c-7.879 0-7.734-8.59-18.071-8.59-8.007 0-14.497 6.41-14.497 14.315 0 6.674 4.995 8.723 2.09 14.704-2.976 6.125-14.026 3.465-14.382 13.448-.168 4.71 3.87 8.533 8.643 8.533 4.773 0 8.668-3.82 8.642-8.533-.022-3.853-2.692-5.225-1.733-9.816h.002c.771-3.84 4.935-7.13 10.308-7.791 6.02-.741 12.824 2.195 12.824 8.824 0 4.105-2.462 4.66-2.462 8.783 0 4.529 3.738 8.533 8.63 8.533 4.892 0 8.642-4.004 8.642-8.533 0-4.122-2.462-4.678-2.462-8.783 0-6.63 6.803-9.565 12.825-8.824 5.373.661 9.537 3.95 10.307 7.79h.002c.959 4.592-1.711 5.964-1.733 9.817-.026 4.712 3.87 8.533 8.643 8.533 4.773 0 8.81-3.824 8.642-8.533ZM74.782 48.28c-4.773 0-8.643-3.82-8.643-8.534 0-4.712 3.87-8.533 8.643-8.533 4.773 0 8.642 3.82 8.642 8.533 0 4.713-3.869 8.534-8.642 8.534Z" fill="#E5222E"/></svg>